<svg xmlns="http://www.w3.org/2000/svg" width="1024" height="1024" viewBox="0 0 1024 1024" version="1.1"><path d="M 637 207.661 C 585.118 227.128, 563.596 236.184, 530.500 252.474 C 433.327 300.305, 367.959 357.054, 336.955 420.500 C 324.085 446.839, 317.985 469.469, 315.976 498.334 C 312.601 546.821, 328.644 594.352, 362.728 636.853 C 370.945 647.098, 389.800 666.189, 397.935 672.500 L 403.091 676.500 402.542 686.500 C 399.817 736.114, 398.808 807.289, 400.780 810.740 C 403.357 815.250, 406.705 816, 424.272 816 C 442.493 816, 447.752 814.903, 452.992 810.008 C 455.920 807.272, 456 806.949, 456.006 797.849 C 456.023 773.627, 459.395 730.192, 462.620 712.639 L 464.248 703.779 467.874 704.412 C 494.968 709.143, 522.014 706.734, 551.258 696.984 C 611.085 677.036, 663.849 626.036, 689.356 563.500 C 705.374 524.230, 711.820 480.935, 709.830 426 C 707.432 359.833, 688.896 289.074, 655.931 220.250 C 651.651 211.313, 647.777 204.022, 647.324 204.049 C 646.871 204.075, 642.225 205.701, 637 207.661 M 572.329 368.832 C 568.387 373.599, 561.942 381.325, 558.007 386 C 540.837 406.398, 516.968 440.363, 500.338 468.063 C 468.290 521.443, 442.466 582.387, 429.602 635 C 421.342 668.779, 419.051 687.665, 418.409 727.250 C 418.152 743.063, 418.293 755.990, 418.721 755.978 C 419.994 755.942, 429.459 738.301, 434.268 727 C 439.467 714.783, 445.559 696.388, 453.475 669 C 482.890 567.227, 507.350 506.246, 564.929 391.141 C 573.282 374.444, 579.976 360.643, 579.806 360.473 C 579.636 360.302, 576.271 364.064, 572.329 368.832" stroke="none" fill="#045d33" fill-rule="evenodd"/></svg>